<?xml version="1.0" standalone="no"?>
<!DOCTYPE svg PUBLIC "-//W3C//DTD SVG 20010904//EN"
 "http://www.w3.org/TR/2001/REC-SVG-20010904/DTD/svg10.dtd">
<svg version="1.0" xmlns="http://www.w3.org/2000/svg"
 width="3425.000000pt" height="560.000000pt" viewBox="0 0 3425.000000 560.000000"
 preserveAspectRatio="xMidYMid meet">
<metadata>
Created by potrace 1.15, written by Peter Selinger 2001-2017
</metadata>
<g transform="translate(0.000000,560.000000) scale(0.100000,-0.100000)"
fill="#000000" stroke="none">
<path d="M28390 3065 l0 -2505 645 0 645 0 0 503 0 504 152 172 c83 94 155
168 159 164 8 -10 135 -294 397 -888 l198 -450 732 -3 c407 -1 732 2 732 7 0
20 -1046 1984 -1168 2193 -19 32 -75 -45 450 614 498 627 628 795 628 816 0
17 -35 18 -712 16 l-712 -3 -138 -215 c-76 -118 -267 -420 -425 -671 l-288
-455 -3 1353 -2 1353 -645 0 -645 0 0 -2505z"/>
<path d="M17640 2765 l0 -2205 565 0 565 0 0 31 0 31 53 -7 c28 -4 54 -11 57
-15 13 -19 249 -40 439 -38 225 2 376 29 591 108 81 29 189 78 200 90 3 3 33
19 67 35 34 17 62 35 62 40 1 6 14 16 30 23 39 17 99 69 207 179 202 204 344
471 407 763 23 103 44 370 41 515 -4 221 -44 446 -111 620 -41 105 -138 290
-169 323 -7 6 -16 22 -19 33 -4 12 -14 29 -23 39 -10 10 -39 44 -67 76 -27 33
-68 76 -90 98 -63 60 -198 166 -212 166 -7 0 -13 4 -13 10 0 5 -30 26 -67 45
-38 19 -75 39 -83 45 -64 40 -273 113 -415 144 -240 52 -642 39 -862 -29 l-23
-7 0 546 0 546 -565 0 -565 0 0 -2205z m1732 305 c72 -14 136 -46 194 -100 48
-44 124 -157 124 -185 0 -8 4 -15 8 -15 5 0 9 -6 9 -12 1 -7 9 -40 18 -73 60
-209 71 -471 31 -755 -8 -52 -42 -169 -64 -220 -36 -83 -149 -223 -178 -222
-5 0 -20 -6 -34 -13 -14 -7 -45 -21 -70 -31 -113 -47 -306 -7 -399 83 -19 18
-38 33 -43 33 -4 0 -8 5 -8 12 0 6 -10 25 -23 42 -33 43 -74 134 -82 181 -4
22 -11 45 -15 50 -4 6 -16 64 -26 130 -37 242 -19 566 41 751 27 83 57 145 79
163 9 8 16 19 16 25 0 20 89 97 140 123 79 39 182 51 282 33z"/>
<path d="M16013 4863 l-553 -3 0 -505 0 -505 -200 0 -200 0 0 -370 0 -370 200
0 200 0 1 -602 c1 -758 12 -1219 33 -1309 31 -136 103 -273 187 -358 96 -96
246 -173 407 -209 109 -24 510 -23 707 2 178 22 313 43 325 51 6 4 10 177 10
466 0 371 -3 461 -13 465 -7 2 -53 -2 -101 -11 -170 -29 -258 -13 -330 60 -83
84 -81 62 -84 798 l-3 647 266 0 265 0 -2 368 -3 367 -262 3 -263 2 -2 508
c-3 442 -5 507 -18 507 -8 0 -264 -1 -567 -2z"/>
<path d="M26230 3992 c-72 -4 -211 -21 -265 -34 -68 -15 -250 -74 -302 -98
-24 -11 -45 -20 -47 -20 -3 0 -27 -13 -55 -29 -27 -16 -52 -27 -55 -24 -3 3
-8 -2 -12 -11 -3 -9 -12 -16 -19 -16 -7 0 -31 -15 -53 -32 -22 -18 -66 -52
-98 -75 -60 -43 -169 -144 -214 -198 -73 -89 -100 -124 -100 -133 0 -5 -7 -15
-15 -22 -12 -10 -73 -108 -84 -135 -2 -5 -16 -37 -31 -70 -107 -234 -149 -450
-151 -770 -1 -189 2 -240 27 -395 16 -96 69 -287 85 -304 5 -6 9 -18 9 -28 0
-10 4 -26 10 -36 5 -9 17 -35 26 -57 10 -22 20 -42 23 -45 4 -3 20 -31 36 -63
84 -161 264 -368 410 -471 75 -52 223 -142 256 -154 14 -6 45 -19 69 -30 85
-38 185 -72 233 -78 26 -4 47 -10 47 -14 0 -5 21 -11 48 -14 324 -42 602 -31
827 33 131 37 334 118 355 141 3 3 33 19 67 35 34 17 62 35 62 40 1 6 14 16
30 23 39 17 99 69 207 179 202 204 344 471 407 763 23 103 44 370 41 515 -4
221 -44 446 -111 620 -41 105 -138 290 -169 323 -7 6 -16 22 -19 33 -4 12 -14
29 -23 39 -10 10 -39 44 -67 76 -27 33 -68 76 -90 98 -63 60 -198 166 -212
166 -7 0 -13 4 -13 10 0 5 -30 26 -67 45 -38 19 -75 39 -83 45 -31 20 -208 90
-275 109 -215 61 -388 78 -645 63z m222 -872 c72 -14 136 -46 194 -100 48 -44
124 -157 124 -185 0 -8 4 -15 8 -15 5 0 9 -6 9 -12 1 -7 9 -40 18 -73 60 -209
71 -471 31 -755 -8 -52 -42 -169 -64 -220 -36 -83 -149 -223 -178 -222 -5 0
-20 -6 -34 -13 -14 -7 -45 -21 -70 -31 -113 -47 -306 -7 -399 83 -19 18 -38
33 -43 33 -4 0 -8 5 -8 12 0 6 -10 25 -23 42 -33 43 -74 134 -82 181 -4 22
-11 45 -15 50 -4 6 -16 64 -26 130 -37 242 -19 566 41 751 27 83 57 145 79
163 9 8 16 19 16 25 0 20 89 97 140 123 79 39 182 51 282 33z"/>
<path d="M3225 3939 c-27 -4 -68 -10 -90 -13 -89 -12 -294 -65 -333 -85 -9 -5
-35 -17 -57 -26 -74 -30 -90 -39 -180 -94 -123 -75 -196 -132 -290 -226 -85
-84 -112 -115 -142 -162 -9 -15 -23 -32 -30 -36 -7 -4 -13 -13 -13 -19 0 -5
-12 -27 -27 -47 -81 -106 -168 -307 -219 -501 -29 -111 -27 -95 -49 -325 -15
-153 -16 -196 -6 -285 18 -151 40 -284 62 -369 27 -100 101 -288 138 -349 17
-27 31 -52 31 -56 0 -10 107 -162 155 -220 82 -101 251 -261 289 -275 6 -2 13
-7 16 -11 11 -15 138 -98 180 -117 138 -65 158 -72 320 -117 218 -61 634 -61
855 -1 262 72 449 164 638 313 32 26 64 53 71 60 6 7 29 32 51 55 89 96 164
205 214 312 13 28 31 66 41 85 26 51 77 263 85 350 3 41 11 97 17 123 6 28 7
52 2 57 -10 8 -237 16 -765 26 l-346 7 -1 -39 c-3 -82 -63 -304 -82 -304 -4 0
-18 -20 -30 -45 -24 -50 -112 -133 -150 -142 -14 -3 -36 -12 -48 -20 -28 -17
-179 -20 -195 -4 -6 6 -21 11 -33 11 -13 0 -26 5 -29 10 -3 6 -15 10 -26 10
-10 0 -19 5 -19 10 0 6 -6 10 -14 10 -8 0 -16 3 -18 8 -1 4 -16 17 -31 29
-147 113 -238 430 -224 778 10 249 60 449 146 581 42 66 134 154 160 154 9 0
22 5 27 10 18 18 155 36 199 27 135 -30 188 -61 253 -149 42 -57 92 -173 92
-213 0 -14 4 -25 9 -25 6 0 11 -15 13 -32 l3 -33 145 2 c550 6 954 14 958 18
6 6 -15 161 -28 200 -5 17 -23 77 -40 135 -63 213 -174 400 -329 557 -233 233
-510 360 -881 402 -99 11 -372 11 -445 0z"/>
<path d="M22690 3942 c-72 -4 -211 -21 -265 -34 -68 -15 -250 -74 -302 -98
-24 -11 -45 -20 -47 -20 -3 0 -27 -13 -55 -29 -27 -16 -52 -27 -55 -24 -3 3
-8 -2 -12 -11 -3 -9 -12 -16 -19 -16 -7 0 -31 -15 -53 -32 -22 -18 -66 -52
-98 -75 -60 -43 -169 -144 -214 -198 -73 -89 -100 -124 -100 -133 0 -5 -7 -15
-15 -22 -12 -10 -73 -108 -84 -135 -2 -5 -16 -37 -31 -70 -107 -234 -149 -450
-151 -770 -1 -189 2 -240 27 -395 16 -96 69 -287 85 -304 5 -6 9 -18 9 -28 0
-10 4 -26 10 -36 5 -9 17 -35 26 -57 10 -22 20 -42 23 -45 4 -3 20 -31 36 -63
84 -161 264 -368 410 -471 75 -52 223 -142 256 -154 14 -6 45 -19 69 -30 85
-38 185 -72 233 -78 26 -4 47 -10 47 -14 0 -5 21 -11 48 -14 324 -42 602 -31
827 33 131 37 334 118 355 141 3 3 33 19 67 35 34 17 62 35 62 40 1 6 14 16
30 23 39 17 99 69 207 179 202 204 344 471 407 763 23 103 44 370 41 515 -4
221 -44 446 -111 620 -41 105 -138 290 -169 323 -7 6 -16 22 -19 33 -4 12 -14
29 -23 39 -10 10 -39 44 -67 76 -27 33 -68 76 -90 98 -63 60 -198 166 -212
166 -7 0 -13 4 -13 10 0 5 -30 26 -67 45 -38 19 -75 39 -83 45 -31 20 -208 90
-275 109 -215 61 -388 78 -645 63z m222 -872 c72 -14 136 -46 194 -100 48 -44
124 -157 124 -185 0 -8 4 -15 8 -15 5 0 9 -6 9 -12 1 -7 9 -40 18 -73 60 -209
71 -471 31 -755 -8 -52 -42 -169 -64 -220 -36 -83 -149 -223 -178 -222 -5 0
-20 -6 -34 -13 -14 -7 -45 -21 -70 -31 -113 -47 -306 -7 -399 83 -19 18 -38
33 -43 33 -4 0 -8 5 -8 12 0 6 -10 25 -23 42 -33 43 -74 134 -82 181 -4 22
-11 45 -15 50 -4 6 -16 64 -26 130 -37 242 -19 566 41 751 27 83 57 145 79
163 9 8 16 19 16 25 0 20 89 97 140 123 79 39 182 51 282 33z"/>
<path d="M6630 3923 c-81 -6 -214 -23 -265 -35 -62 -14 -248 -73 -295 -95 -97
-44 -179 -87 -212 -111 -20 -15 -58 -42 -85 -61 -90 -64 -213 -174 -276 -245
-86 -97 -137 -162 -137 -174 0 -5 -7 -15 -15 -22 -12 -10 -73 -108 -84 -135
-2 -5 -16 -37 -32 -70 -35 -77 -109 -295 -109 -323 0 -21 4 -22 103 -22 l102
0 35 103 c19 56 37 107 41 112 4 6 17 35 30 65 25 60 79 152 104 180 8 9 15
21 15 26 0 17 154 187 216 238 70 59 144 114 185 137 16 9 34 21 41 26 14 11
112 61 168 87 48 21 234 81 295 94 209 47 492 49 690 6 142 -31 351 -104 415
-144 8 -6 40 -23 71 -39 30 -16 61 -36 68 -45 8 -9 19 -16 25 -16 36 0 257
-209 323 -305 219 -319 313 -620 313 -1005 0 -265 -24 -425 -98 -640 -92 -271
-305 -558 -507 -685 -17 -11 -51 -33 -74 -48 -23 -15 -52 -32 -64 -38 -12 -5
-42 -21 -67 -35 -88 -50 -329 -128 -475 -154 -164 -29 -572 -16 -620 20 -5 4
-30 10 -55 14 -46 7 -149 42 -230 78 -24 11 -55 24 -69 30 -32 12 -180 101
-256 154 -150 105 -322 325 -422 539 -8 17 -18 38 -24 47 -5 10 -9 26 -9 36 0
10 -4 22 -9 28 -25 27 -100 337 -101 417 l0 27 -101 0 -101 0 6 -67 c16 -164
78 -436 107 -467 5 -6 9 -18 9 -28 0 -10 4 -26 10 -36 5 -9 17 -35 27 -57 93
-211 327 -496 518 -629 76 -53 224 -142 256 -154 14 -6 45 -19 69 -30 73 -33
182 -70 225 -78 22 -4 45 -10 50 -14 47 -36 608 -54 780 -25 181 31 401 101
530 171 199 107 242 139 405 303 232 234 368 477 440 786 24 104 50 391 50
556 0 235 -47 511 -117 694 -30 76 -113 241 -153 300 -22 33 -40 64 -40 68 0
5 -42 56 -92 114 -132 149 -308 296 -434 362 -32 17 -66 35 -74 41 -64 40
-273 113 -415 144 -140 30 -412 43 -605 29z"/>
<path d="M13595 3689 c-49 -11 -101 -22 -115 -25 -23 -5 -169 -73 -180 -84 -3
-3 -23 -17 -45 -31 -47 -31 -109 -89 -151 -142 l-31 -38 -7 113 c-3 62 -9 125
-12 141 l-6 27 -524 0 -524 0 0 -1520 0 -1520 491 0 c478 0 492 1 540 21 32
14 51 29 54 43 3 11 6 440 8 951 l2 930 28 81 c46 139 116 210 226 234 174 37
306 -30 357 -182 17 -49 18 -122 21 -1066 l4 -1012 539 0 540 0 0 1121 c0
1229 0 1222 -60 1407 -40 126 -95 222 -180 317 -41 46 -79 84 -83 84 -5 1 -23
12 -40 25 -57 43 -160 88 -257 114 -83 22 -120 25 -300 28 -177 3 -217 1 -295
-17z"/>
<path d="M8712 2503 l3 -1158 24 -95 c39 -158 103 -310 151 -362 11 -12 20
-25 20 -29 0 -11 118 -121 153 -144 18 -10 34 -22 37 -26 12 -15 161 -78 220
-93 185 -44 422 -50 593 -15 56 11 113 23 125 25 31 6 153 67 217 109 55 36
114 90 161 148 l31 38 7 -103 c3 -57 10 -119 14 -138 l8 -35 522 -3 522 -2 0
1520 0 1520 -491 0 c-478 0 -492 -1 -540 -21 l-49 -21 0 -862 c-1 -859 -5
-1012 -35 -1095 -8 -24 -17 -54 -19 -67 -12 -63 -122 -176 -186 -191 -39 -9
-184 -10 -215 -2 -50 13 -140 83 -129 101 3 4 1 8 -4 8 -5 0 -20 24 -33 53
l-24 52 -3 1023 -3 1022 -540 0 -539 0 2 -1157z"/>
<path d="M6600 3610 c-96 -7 -137 -16 -270 -55 -98 -28 -244 -94 -306 -138
-231 -162 -380 -319 -481 -507 -36 -66 -94 -205 -95 -227 0 -4 -4 -18 -9 -30
-8 -23 -8 -23 81 -23 94 0 103 5 113 57 2 10 14 40 25 66 12 27 22 50 22 53 0
2 17 29 38 60 20 31 42 66 49 78 51 92 212 241 357 330 50 30 143 76 155 76 6
0 11 5 11 10 0 6 9 10 20 10 10 0 43 9 72 21 82 32 248 63 393 73 128 9 358
-26 491 -74 87 -32 285 -132 291 -147 3 -7 11 -13 18 -13 40 0 226 -180 277
-267 12 -21 30 -46 39 -56 28 -31 114 -211 144 -302 55 -169 60 -208 60 -480
0 -241 -2 -267 -24 -355 -13 -52 -29 -108 -36 -125 -7 -16 -19 -50 -26 -75 -7
-25 -23 -61 -36 -80 -13 -19 -23 -39 -23 -45 0 -11 -89 -149 -114 -177 -9 -10
-16 -21 -16 -25 0 -15 -186 -186 -216 -199 -17 -7 -36 -20 -44 -28 -7 -9 -19
-16 -26 -16 -8 0 -14 -4 -14 -8 0 -5 -25 -19 -55 -32 -30 -13 -55 -27 -55 -31
0 -8 -21 -16 -57 -24 -10 -2 -40 -13 -66 -24 -27 -12 -62 -23 -78 -26 -16 -3
-48 -12 -72 -19 -23 -8 -58 -17 -77 -21 -51 -11 -459 -14 -466 -4 -3 5 -18 9
-34 9 -16 0 -31 4 -34 9 -3 4 -27 11 -53 15 -151 20 -451 185 -579 317 -77 80
-196 257 -234 349 -6 14 -14 32 -17 40 -4 8 -8 20 -8 25 -1 6 -6 19 -10 30 -4
11 -14 35 -21 53 -11 27 -64 258 -64 277 0 3 -36 5 -80 5 l-81 0 5 -32 c3 -18
8 -59 10 -90 3 -31 8 -69 12 -85 12 -52 56 -198 63 -208 4 -5 13 -30 20 -55 7
-25 17 -49 21 -55 4 -5 23 -37 41 -70 129 -236 344 -443 585 -562 95 -48 248
-103 283 -103 11 0 23 -5 26 -10 4 -6 18 -10 33 -10 15 0 63 -4 107 -9 125
-15 410 -13 492 3 40 7 74 12 76 9 12 -11 285 87 382 137 147 77 198 116 337
257 156 159 253 316 320 518 91 279 100 773 18 1046 -37 123 -98 269 -112 269
-5 0 -8 6 -8 14 0 7 -18 41 -40 74 -22 33 -40 63 -40 67 0 17 -161 191 -225
244 -192 158 -349 237 -590 298 -116 29 -366 39 -595 23z"/>
<path d="M5219 2562 c-197 -103 -197 -411 0 -514 37 -19 68 -28 101 -28 64 0
144 43 187 98 110 145 68 364 -86 444 -37 19 -68 28 -101 28 -33 0 -64 -9
-101 -28z m147 -140 c31 -24 54 -75 54 -117 0 -67 -50 -135 -100 -135 -50 0
-100 68 -100 135 0 67 50 135 100 135 14 0 35 -8 46 -18z"/>
</g>
</svg>
